#!OML:ASF F:\VICON\USERDATA\INSTALL\rory3\rory3.ASF
:FULLY-SPECIFIED
:DEGREES
3092
root 2.06783 14.4411 -15.7325 -538.372 -36.1089 531.933
lowerback 17.1862 -1.22432 -12.5622
upperback -1.37098 -4.25235 0.623676
thorax -10.2922 -1.31219 8.91277
lowerneck -12.5573 -6.36125 -5.97129
upperneck 19.7227 -9.4428 6.01334
head 8.80178 -4.50436 1.88613
rclavicle 6.40956e-014 -2.8625e-014
rhumerus 34.1178 54.6056 -45.8271
rradius 108.563
rwrist 19.7104
rhand -1.02359 27.0019
rfingers 7.12502
rthumb 24.6096 -1.43612
lclavicle 6.40956e-014 -2.8625e-014
lhumerus -16.7566 -52.1553 94.1989
lradius 56.98
lwrist 80.606
lhand 4.99737 32.6697
lfingers 7.12502
lthumb 30.3675 60.1898
rfemur -43.419 -18.2589 14.9735
rtibia 70.8307
rfoot -25.7455 -3.02523
rtoes 16.2062
lfemur -9.62305 29.4896 -12.2841
ltibia 59.0833
lfoot -30.6631 17.5804
ltoes -23.2474
3093
root 2.07353 14.4466 -15.7678 -538.47 -36.1368 531.989
lowerback 17.0991 -1.20903 -12.6189
upperback -1.3367 -4.22792 0.634676
thorax -10.2046 -1.30632 8.9438
lowerneck -12.5683 -6.37236 -5.98717
upperneck 19.7401 -9.45361 6.00458
head 8.8108 -4.51095 1.88388
rclavicle 4.62174e-015 -4.37326e-015
rhumerus 33.9486 54.5888 -46.0265
rradius 108.487
rwrist 19.975
rhand -1.1848 26.9517
rfingers 7.12502
rthumb 24.4551 -1.50727
lclavicle 4.62174e-015 -4.37326e-015
lhumerus -16.7048 -52.1883 94.1366
lradius 56.9649
lwrist 80.6486
lhand 5.1636 32.6837
lfingers 7.12502
lthumb 30.526 60.1745
rfemur -43.1734 -18.1524 15.0675
rtibia 70.7856
rfoot -25.7926 -3.33187
rtoes 14.978
lfemur -9.30863 29.4222 -12.0202
ltibia 58.9134
lfoot -30.8089 17.2645
ltoes -22.1712
3094
root 2.07624 14.454 -15.7931 -538.531 -36.1973 532.1
lowerback 17.1766 -1.23051 -12.4683
upperback -1.4469 -4.24572 0.598204
thorax -10.3828 -1.3033 8.83164
lowerneck -12.3958 -6.36914 -5.85936
upperneck 19.7518 -9.47796 5.92276
head 8.77397 -4.52917 1.83785
rclavicle -8.67819e-014 -2.90226e-014
rhumerus 33.4909 54.6967 -46.5217
rradius 108.435
rwrist 20.0163
rhand -1.1656 27.0796
rfingers 7.12502
rthumb 24.4735 -1.37689
lclavicle -8.67819e-014 -2.90226e-014
lhumerus -16.9873 -52.2054 94.2797
lradius 56.9995
lwrist 80.727
lhand 5.2126 32.7667
lfingers 7.12502
lthumb 30.5727 60.2487
rfemur -42.9973 -18.1577 15.2064
rtibia 70.7091
rfoot -25.1549 -2.82915
rtoes 17.6643
lfemur -9.19702 29.4169 -11.8101
ltibia 58.8244
lfoot -30.5006 17.6022
ltoes -26.2293
3095
root 2.0825 14.454 -15.8098 -538.531 -36.324 532.14
lowerback 17.198 -1.28182 -12.4613
upperback -1.4557 -4.31156 0.630639
thorax -10.3869 -1.3326 8.88114
lowerneck -12.4319 -6.3308 -5.77946
upperneck 19.7722 -9.41029 5.80061
head 8.77274 -4.50168 1.7915
rclavicle -5.13424e-014 -1.19271e-014
rhumerus 33.6073 54.754 -46.3794
rradius 108.48
rwrist 20.0488
rhand -1.14452 27.2138
rfingers 7.12502
rthumb 24.4937 -1.23998
lclavicle -5.13424e-014 -1.19271e-014
lhumerus -16.8771 -52.0652 94.2358
lradius 56.8986
lwrist 80.7461
lhand 5.06755 32.3306
lfingers 7.12502
lthumb 30.4344 59.8384
rfemur -42.9015 -18.2358 15.2883
rtibia 70.6715
rfoot -26.241 -3.62036
rtoes 14.5516
lfemur -9.22582 29.1787 -11.7691
ltibia 58.8272
lfoot -30.5895 17.5125
ltoes -26.9227
3096
root 2.08968 14.4543 -15.8241 -538.477 -36.4403 532.235
lowerback 17.0416 -1.30679 -12.3986
upperback -1.40815 -4.29769 0.691563
thorax -10.2443 -1.3415 8.89679
lowerneck -12.6009 -6.346 -5.89406
upperneck 19.8037 -9.41011 5.87356
head 8.82409 -4.49552 1.82899
rclavicle 1.42876e-014 -3.18055e-015
rhumerus 33.863 54.5194 -46.0454
rradius 108.534
rwrist 19.732
rhand -0.884291 27.279
rfingers 7.12502
rthumb 24.7431 -1.1407
lclavicle 1.42876e-014 -3.18055e-015
lhumerus -16.6485 -52.0914 94.1295
lradius 56.9109
lwrist 80.8232
lhand 4.79218 31.7742
lfingers 7.12502
lthumb 30.1717 59.3303
rfemur -42.9647 -18.3661 15.456
rtibia 70.6712
rfoot -25.1935 -2.68153
rtoes 18.3316
lfemur -9.38673 29.0195 -11.7002
ltibia 58.8627
lfoot -30.7207 17.2355
ltoes -26.4284
3097
root 2.09663 14.4536 -15.8406 -538.387 -36.4551 532.244
lowerback 16.9464 -1.28518 -12.3223
upperback -1.40074 -4.24249 0.659515
thorax -10.2013 -1.32486 8.79716
lowerneck -12.7257 -6.36962 -5.86554
upperneck 19.7978 -9.43313 5.86766
head 8.84482 -4.49913 1.81584
rclavicle -1.63625e-014 1.55052e-014
rhumerus 33.904 54.3911 -45.9141
rradius 108.619
rwrist 19.6957
rhand -0.987577 27.0312
rfingers 7.12502
rthumb 24.6441 -1.40207
lclavicle -1.63625e-014 1.55052e-014
lhumerus -16.6469 -52.1597 94.1311
lradius 56.8869
lwrist 80.7079
lhand 4.77721 31.3152
lfingers 7.12502
lthumb 30.1575 58.8738
rfemur -43.063 -18.3649 15.5676
rtibia 70.7095
rfoot -25.3388 -2.79511
rtoes 18.171
lfemur -9.4666 29.0846 -11.6315
ltibia 58.8534
lfoot -30.6057 17.2162
ltoes -26.556
3098
root 2.09914 14.4515 -15.8579 -538.31 -36.498 532.025
lowerback 17.0971 -1.25869 -12.4454
upperback -1.46542 -4.26621 0.604905
thorax -10.3539 -1.31531 8.82545
lowerneck -12.7471 -6.37588 -5.983
upperneck 19.9255 -9.44498 5.91639
head 8.9016 -4.50945 1.8475
rclavicle 2.98177e-016 7.95139e-015
rhumerus 33.7411 54.4097 -46.0182
rradius 108.639
rwrist 19.6527
rhand -1.02088 27.2715
rfingers 7.12502
rthumb 24.6122 -1.16613
lclavicle 2.98177e-016 7.95139e-015
lhumerus -16.8015 -52.0923 94.34
lradius 56.7027
lwrist 80.6307
lhand 4.99341 30.9546
lfingers 7.12502
lthumb 30.3637 58.4754
rfemur -42.9675 -18.4558 15.3848
rtibia 70.7617
rfoot -25.5096 -2.81526
rtoes 17.8785
lfemur -9.28444 29.0292 -11.7103
ltibia 58.7639
lfoot -30.5271 17.2913
ltoes -27.4387
3099
root 2.10513 14.4511 -15.8747 -538.294 -36.6011 531.914
lowerback 17.1949 -1.27133 -12.6022
upperback -1.47467 -4.33046 0.615255
thorax -10.3954 -1.3325 8.94882
lowerneck -12.6939 -6.35982 -6.03336
upperneck 19.881 -9.42002 5.95817
head 8.87964 -4.49889 1.87492
rclavicle 4.0813e-015 2.18663e-014
rhumerus 33.8421 54.5541 -45.8559
rradius 108.758
rwrist 19.7737
rhand -1.15104 27.1372
rfingers 7.12502
rthumb 24.4874 -1.31733
lclavicle 4.0813e-015 2.18663e-014
lhumerus -16.72 -52.0083 94.3249
lradius 56.5961
lwrist 80.6022
lhand 5.10855 30.866
lfingers 7.12502
lthumb 30.4735 58.3665
rfemur -42.8387 -18.5346 15.2936
rtibia 70.8034
rfoot -25.6471 -2.70564
rtoes 17.5557
lfemur -9.13841 28.8457 -11.7206
ltibia 58.6582
lfoot -30.6736 17.1686
ltoes -27.9527
3100
root 2.11239 14.4531 -15.8913 -538.238 -36.652 531.877
lowerback 17.2148 -1.22882 -12.5698
upperback -1.52177 -4.27742 0.577368
thorax -10.4788 -1.30108 8.87935
lowerneck -12.4993 -6.43398 -6.15108
upperneck 19.783 -9.53894 6.10207
head 8.832 -4.55604 1.93369
rclavicle -7.77621e-014 2.10712e-014
rhumerus 33.5499 54.6052 -46.0046
rradius 108.764
rwrist 19.9276
rhand -1.28588 27.0852
rfingers 7.12502
rthumb 24.3582 -1.38676
lclavicle -7.77621e-014 2.10712e-014
lhumerus -16.7892 -52.0959 94.4029
lradius 56.6585
lwrist 80.6558
lhand 4.95136 31.3848
lfingers 7.12502
lthumb 30.3236 58.913
rfemur -42.8416 -18.5339 15.3336
rtibia 70.8436
rfoot -25.9771 -2.80929
rtoes 16.8125
lfemur -9.12341 28.735 -11.7266
ltibia 58.5547
lfoot -30.5311 17.3041
ltoes -27.7307
3101
root 2.11079 14.4571 -15.9062 -538.146 -36.7641 531.853
lowerback 17.3098 -1.26574 -12.326
upperback -1.67349 -4.30927 0.474574
thorax -10.7232 -1.30597 8.64554
lowerneck -12.3834 -6.41608 -6.12919
upperneck 19.901 -9.55147 6.10802
head 8.8509 -4.5672 1.93278
rclavicle 2.26739e-014 3.1408e-014
rhumerus 33.1237 54.6934 -46.3763
rradius 108.732
rwrist 20.0188
rhand -1.36146 27.2659
rfingers 7.12502
rthumb 24.2857 -1.21581
lclavicle 2.26739e-014 3.1408e-014
lhumerus -17.1699 -52.0441 94.6638
lradius 56.7965
lwrist 80.7284
lhand 4.70922 32.3233
lfingers 7.12502
lthumb 30.0926 59.8937
rfemur -42.8101 -18.7051 15.3274
rtibia 70.8297
rfoot -26.5069 -3.35457
rtoes 14.5201
lfemur -9.1407 28.529 -11.804
ltibia 58.4558
lfoot -30.5834 17.1945
ltoes -26.3142
3102
root 2.11228 14.4578 -15.9188 -538.054 -36.8554 531.756
lowerback 17.4207 -1.32961 -12.3377
upperback -1.72549 -4.41616 0.472547
thorax -10.8214 -1.34482 8.6854
lowerneck -12.6473 -6.29568 -6.18344
upperneck 20.1889 -9.37058 6.04736
head 8.98516 -4.48524 1.93372
rclavicle 2.29907e-014 -2.82274e-014
rhumerus 33.3859 54.7795 -46.1809
rradius 108.751
rwrist 19.9476
rhand -1.35075 27.6045
rfingers 7.12502
rthumb 24.296 -0.875893
lclavicle 2.29907e-014 -2.82274e-014
lhumerus -17.1843 -51.7403 94.7052
lradius 56.8174
lwrist 80.7233
lhand 4.50459 33.1233
lfingers 7.12502
lthumb 29.8973 60.7291
rfemur -42.7964 -18.8807 15.2651
rtibia 70.8469
rfoot -25.9948 -2.5214
rtoes 18.6369
lfemur -9.15049 28.3722 -11.9246
ltibia 58.3719
lfoot -30.4885 17.3407
ltoes -26.4125
3103
root 2.12372 14.457 -15.9366 -538.094 -36.8573 531.841
lowerback 17.4345 -1.32063 -12.3968
upperback -1.69448 -4.41035 0.525269
thorax -10.7869 -1.34063 8.7771
lowerneck -12.757 -6.27535 -6.23686
upperneck 20.2287 -9.32985 6.073
head 9.02032 -4.46325 1.95272
rclavicle 9.49383e-014 2.54444e-014
rhumerus 33.4343 54.732 -46.278
rradius 108.687
rwrist 20.0949
rhand -1.2832 27.8507
rfingers 7.12502
rthumb 24.3607 -0.621003
lclavicle 9.49383e-014 2.54444e-014
lhumerus -16.9945 -51.6888 94.5659
lradius 56.7069
lwrist 80.6125
lhand 4.7084 33.0674
lfingers 7.12502
lthumb 30.0918 60.6381
rfemur -42.7744 -18.7232 15.4446
rtibia 70.8317
rfoot -26.8685 -3.62139
rtoes 13.8716
lfemur -9.16248 28.3608 -11.7695
ltibia 58.3545
lfoot -30.3019 17.6073
ltoes -27.4422
3104
root 2.13295 14.4592 -15.9614 -538.182 -36.8505 531.977
lowerback 17.437 -1.27797 -12.3727
upperback -1.70913 -4.348 0.536072
thorax -10.8207 -1.30833 8.76224
lowerneck -12.6237 -6.32102 -6.16376
upperneck 20.0923 -9.40658 6.0836
head 8.95109 -4.49653 1.93974
rclavicle -3.81791e-014 -2.70347e-014
rhumerus 33.1365 54.7448 -46.6038
rradius 108.624
rwrist 20.3771
rhand -1.35037 27.7078
rfingers 7.12502
rthumb 24.2963 -0.77245
lclavicle -3.81791e-014 -2.70347e-014
lhumerus -17.1096 -51.7399 94.6079
lradius 56.6689
lwrist 80.5071
lhand 4.99189 33.011
lfingers 7.12502
lthumb 30.3622 60.532
rfemur -42.6666 -18.6029 15.6562
rtibia 70.8048
rfoot -27.2016 -3.30274
rtoes 15.064
lfemur -9.05314 28.3893 -11.4666
ltibia 58.3303
lfoot -30.2856 17.4764
ltoes -27.7118
3105
root 2.13768 14.4551 -15.9886 -538.361 -36.9369 532.176
lowerback 17.4344 -1.3149 -12.2548
upperback -1.70075 -4.36559 0.569197
thorax -10.8094 -1.32341 8.73612
lowerneck -12.5337 -6.2755 -5.9527
upperneck 20.0715 -9.35441 5.91601
head 8.90453 -4.47658 1.85898
rclavicle -2.48854e-014 -3.97569e-014
rhumerus 32.9892 54.8793 -46.7501
rradius 108.68
rwrist 20.4554
rhand -1.3566 27.5546
rfingers 7.12502
rthumb 24.2904 -0.926504
lclavicle -2.48854e-014 -3.97569e-014
lhumerus -17.2203 -51.6851 94.624
lradius 56.6808
lwrist 80.4371
lhand 5.08333 33.0676
lfingers 7.12502
lthumb 30.4494 60.5725
rfemur -42.4518 -18.6456 15.8657
rtibia 70.7715
rfoot -27.1683 -3.73072
rtoes 12.011
lfemur -8.86334 28.3011 -11.1015
ltibia 58.3055
lfoot -30.3332 17.2297
ltoes -27.7949
